Coordinates
version=1
nRows=11
nColumns=36
inDegrees=yes

Units are S.I. units (second, meters, Newtons, ...)
If the header above contains a line with 'inDegrees', this indicates whether rotational values are in degrees (yes) or radians (no).

endheader
time	pelvis_tilt	pelvis_list	pelvis_rotation	pelvis_tx	pelvis_ty	pelvis_tz	hip_flexion_r	hip_adduction_r	hip_rotation_r	knee_angle_r	knee_angle_r_beta	ankle_angle_r	subtalar_angle_r	mtp_angle_r	hip_flexion_l	hip_adduction_l	hip_rotation_l	knee_angle_l	knee_angle_l_beta	ankle_angle_l	subtalar_angle_l	mtp_angle_l	lumbar_extension	lumbar_bending	lumbar_rotation	arm_flex_r	arm_add_r	arm_rot_r	elbow_flex_r	pro_sup_r	arm_flex_l	arm_add_l	arm_rot_l	elbow_flex_l	pro_sup_l
      2.48333330	     -6.13552652	      3.79925215	     -2.20705412	      1.00833830	      0.89742222	     -0.58989668	     35.27471557	     -6.56220970	     -1.75417015	     41.19482780	      0.71898538	      0.74009538	     -2.27744745	     -7.49999987	     33.11225201	     -4.00653141	     -2.69366843	     39.72859209	      0.69339474	      0.52939679	     -6.60766386	     -7.49999987	    -11.21392501	     -4.42947753	      5.25754228	    -49.22539607	    -17.94561611	    -23.32080594	     15.17307067	     78.14763847	    -25.38488346	    -13.24471780	    -19.73290501	     37.47158751	    102.28561366
      2.50000000	     -5.90656220	      3.93430474	     -2.18038756	      1.01809324	      0.85415028	     -0.58702762	     40.26230732	     -5.86765288	      1.16685026	     54.26710196	      0.94713960	     11.21341586	     -5.40611087	     -7.49999987	     38.28436177	     -4.00700330	     -1.71003373	     51.78726776	      0.90385833	     10.27380484	     -7.85845727	     -7.49999987	    -12.02955853	     -4.47527987	      3.29881943	    -39.97275126	    -17.19658856	    -20.92744778	     12.85055820	     76.36411009	    -18.94465907	    -10.83711591	    -18.74961925	     31.11360197	     98.61347464
      2.51666670	     -4.90079120	      3.97076177	     -2.23573598	      1.01932017	      0.82614736	     -0.58418984	     44.58718728	     -4.37887016	      3.61159461	     66.28332780	      1.15686231	     18.41261193	     -8.21869467	     -7.49999987	     42.97482671	     -4.02486167	     -0.29943407	     63.48025233	      1.10793941	     18.04322995	     -8.74433264	     -7.49999987	    -14.81650840	     -4.91898246	      0.86664211	    -27.82699065	    -16.43146671	     -4.08784345	     12.59557457	     63.98000202	    -11.55425929	    -10.00774176	    -14.79432301	     25.38588901	     89.75968575
      2.53333330	     -4.09078033	      3.67011417	     -2.37196818	      1.01803939	      0.79307862	     -0.58072547	     48.92822362	     -2.48624925	      5.22469266	     76.27148050	      1.33118846	     22.85567401	    -10.23383284	     -7.49999987	     47.55856475	     -4.51762480	      0.90047959	     73.74398101	      1.28707527	     23.51179881	     -9.34047733	     -7.49999987	    -19.47410483	     -5.42556483	     -0.61965077	    -16.10496064	    -15.08945673	      7.85747179	     14.16458224	     57.69635829	     -4.33578819	    -10.71088753	    -10.03368392	     22.34820673	     83.69639923
      2.55000000	     -2.15765973	      3.62191385	     -2.57182758	      1.01476160	      0.77699833	     -0.58209214	     50.56683853	     -1.35198123	      6.47093104	     83.52770879	      1.45783354	     25.27079751	    -11.40983241	     -7.49999987	     49.02018470	     -4.45435747	      1.66690115	     80.66847727	      1.40793053	     26.94158204	     -9.71491465	     -7.49999987	    -26.44552838	     -6.06187702	     -1.56504668	     -3.12918553	    -14.01547836	      9.02941158	     17.22999564	     57.91146653	      4.17165545	    -10.45283378	     -9.23035253	     20.10079528	     83.57769028
      2.56666670	     -1.40299655	      3.75679837	     -2.58552659	      1.01709259	      0.74582078	     -0.58386408	     53.21350829	     -0.85427013	      7.29500535	     89.88502491	      1.56878963	     26.94474312	    -12.31420982	     -7.49999987	     51.52727530	     -4.21546959	      2.08225646	     86.89061667	      1.51652735	     29.08516729	    -10.59389452	     -7.49999987	    -31.26880184	     -5.59227120	     -1.05232836	      4.42634388	    -15.57824104	     16.18697943	     20.59739940	     58.81043924	      9.21336767	    -10.51782657	     -4.31234913	     21.38735128	     81.19273324
      2.58333330	     -1.66212711	      4.15636529	     -2.61295221	      1.01724722	      0.72962468	     -0.58406061	     55.73089370	     -0.89786760	      7.73932306	     94.25310767	      1.64502706	     28.33666174	    -12.76665163	     -7.49999987	     53.96285965	     -3.82140161	      2.20410708	     91.36378635	      1.59459889	     30.77996102	    -11.04415022	     -7.49999987	    -35.04687559	     -5.18340027	     -1.47660436	     13.98269561	    -15.22465881	     15.93005377	     24.09848665	     58.87455264	     15.94155400	    -10.69681535	     -2.76670715	     23.94788643	     80.85590962
      2.60000000	     -3.00912344	      4.61260601	     -2.71607499	      1.01872260	      0.70976430	     -0.58625508	     58.70701721	     -1.00798080	      8.03487806	     97.30688703	      1.69832556	     29.52605381	    -13.42925786	     -7.49999987	     56.59762574	     -3.61987388	      2.08078652	     94.51667574	      1.64962719	     31.82990382	    -11.57221331	     -7.49999987	    -37.42957987	     -5.03924953	     -0.91767558	     24.11842099	    -15.14767162	     15.47533360	     26.36494732	     58.98690974	     24.18818775	    -10.31757374	     -2.44281618	     25.86390228	     81.16247926
      2.61666670	     -5.13460371	      4.31759913	     -2.81717057	      1.02012829	      0.68935714	     -0.58456744	     62.03577551	     -0.83080587	      7.41525287	     99.72606741	      1.74054823	     31.45311627	    -12.78812799	     -7.49999987	     60.04582102	     -4.42202605	      2.50726463	     97.26382289	      1.69757395	     33.62117623	    -10.74354663	     -7.49999987	    -37.24199333	     -4.27742408	     -0.67288060	     32.03500031	    -15.02998101	     17.91406306	     31.06088654	     63.25935398	     31.36382505	    -13.03523379	      4.09960601	     29.32810153	     82.67393423
      2.63333330	     -7.21212558	      4.13390059	     -3.16572723	      1.02087088	      0.67684843	     -0.58510767	     64.84992238	     -0.52082889	      7.00232493	    101.18904696	      1.76608204	     32.87024328	    -12.43620555	     -7.49999987	     62.86237519	     -5.25399834	      2.73330659	     98.93143097	      1.72667920	     35.33704208	     -9.42778427	     -7.49999987	    -37.18002366	     -4.12986254	      0.60142557	     41.09162028	    -13.28385734	     13.37042428	     35.16351394	     78.91315870	     39.61878872	    -13.20084255	      4.45971669	     32.03633828	     88.06911273
      2.65000000	     -9.93395225	      3.93938176	     -3.34998663	      1.02070223	      0.65858285	     -0.59115340	     68.29495847	     -0.39478133	      6.70683585	    102.41697236	      1.78751338	     33.91643838	    -12.28980140	     -7.49999987	     66.42249487	     -5.76494550	      2.99686520	    100.55397131	      1.75499788	     36.92095334	     -8.29673455	     -7.49999987	    -35.57493321	     -3.33293246	      1.89186580	     49.76037928	    -12.70172486	     16.15359313	     34.66547629	     79.58594067	     48.26000164	    -13.21106356	      8.67864443	     33.64582362	     89.05426822
